PathFileType	4	(X/Y/Z)	Walk4.trc
DataRate	CameraRate	NumFrames	NumMarkers	Units	OrigDataRate	OrigDataStartFrame	OrigNumFrames
200.000000	200.000000	4	58	mm	200.000000	250	454
Frame#	Times		LFHD		RFHD		RBHD		C7		CLAV		STRN		RBack		RASI		LPSI		RACR1		RUA1		RElbow		RFA1		RWRR		RCAR		LACR1		LUA1		LElbow		LFA1		LWRR		LWRU		LCAR		RTH1		RTH3		RTH2		RTH4		RLFC		RTB1		RTB3		RTB2		RTB4		RLMAL		RMMAL		RCAL		RMT1		RMT5		RToe		LTH1		LTH3		LTH2		LTH4		LLFC		LTB1		LTB3		LTB2		LTB4		LLMAL		LMT5		LToe		RWRU		LBHD		T10		LMMAL		RPSI		LASI		LElbowM		LMT1		LCAL
			X1	Y1	Z1	X2	Y2	Z2	X3	Y3	Z3	X4	Y4	Z4	X5	Y5	Z5	X6	Y6	Z6	X7	Y7	Z7	X8	Y8	Z8	X9	Y9	Z9	X10	Y10	Z10	X11	Y11	Z11	X12	Y12	Z12	X13	Y13	Z13	X14	Y14	Z14	X15	Y15	Z15	X16	Y16	Z16	X17	Y17	Z17	X18	Y18	Z18	X19	Y19	Z19	X20	Y20	Z20	X21	Y21	Z21	X22	Y22	Z22	X23	Y23	Z23	X24	Y24	Z24	X25	Y25	Z25	X26	Y26	Z26	X27	Y27	Z27	X28	Y28	Z28	X29	Y29	Z29	X30	Y30	Z30	X31	Y31	Z31	X32	Y32	Z32	X33	Y33	Z33	X34	Y34	Z34	X35	Y35	Z35	X36	Y36	Z36	X37	Y37	Z37	X38	Y38	Z38	X39	Y39	Z39	X40	Y40	Z40	X41	Y41	Z41	X42	Y42	Z42	X43	Y43	Z43	X44	Y44	Z44	X45	Y45	Z45	X46	Y46	Z46	X47	Y47	Z47	X48	Y48	Z48	X49	Y49	Z49	X50	Y50	Z50	X51	Y51	Z51	X52	Y52	Z52	X53	Y53	Z53	X54	Y54	Z54	X55	Y55	Z55	X56	Y56	Z56	X57	Y57	Z57	X58	Y58	Z58

250	1.25	7.1969	1572.7	-57.728	21.726	1574.2	36.143	-129.87	1530.8	75.987	-176.79	1392.9	5.6305	-34.35	1321.1	2.1266	30.021	1218.4	9.8478	-230.01	1292.6	104.91	14.226	961.92	161.65	-221.5	940.1	-36.165	-107.67	1351.2	158.39	-143.36	1167.4	248.37	-206.48	1050.4	263.97	-219.35	906.17	283.11	-150.42	797.16	261.65	-156.48	745.6	313.19	-94.424	1358.1	-152.26	-50.226	1185.2	-245.38	-41.501	1059.2	-280.59	31.682	939.13	-282.14	140.41	884.67	-214.65	109.54	850.25	-271.58	181.6	853.04	-251.58	-20.599	727.28	227.88	35.024	569.63	181.25	58.89	671.52	188.87	6.6063	647.27	204.84	63.141	492.36	154.1	137.49	351.29	80.71	154.14	179.22	83.333	124.71	263.93	137.81	146.12	264.09	78.619	131.42	60.642	110.55	146.25	70.007	28.182	70.701	24.577	72.26	248.68	38.303	53.391	217.92	25.65	126.05	311.88	42.761	82.366	-91.304	731.58	-212.03	-146.81	582.66	-149.55	-64.878	649.54	-156.43	-119.59	659.3	-175.03	-184.97	464.97	-119.1	-217.77	314.48	-44.59	-324.98	180.04	-53.113	-285.6	259.44	-105.68	-273.05	247.52	-47.62	-418.19	111.4	-83.739	-359.45	34.506	-89.702	-266.58	20.743	-38.496	-211.94	797.78	297.03	-145.99	1521.7	-64.542	-236	1124	-6.2242	-409.63	108.71	1.3947	-223.75	943.56	53.642	25.773	937.09	-130.53	-77.425	1017	-216.6	-333.52	34.649	-11.162	-489.35	115.76	-53.739
251	1.255	12.772	1573.4	-56.828	27.385	1574.8	37.03	-124.17	1531.4	76.991	-171.01	1393.3	6.5634	-28.531	1321.7	3.0303	35.964	1219.2	10.821	-224.14	1292.9	105.77	20.662	962.76	162.17	-215.12	940.43	-35.877	-101.9	1351.6	159.28	-137.19	1167.8	249.17	-199.97	1050.6	264.75	-212.3	906.29	283.86	-142.89	797.56	262.38	-148.78	745.99	313.92	-88.665	1358.6	-151.4	-45.302	1185.4	-244.47	-37.232	1059.3	-279.48	35.186	938.74	-281.04	143.68	883.65	-213.68	112.48	849.44	-270.56	184.61	851.71	-250.63	-14.792	728.06	228.46	39.907	570.14	181.74	64.507	671.78	190	11.914	647.9	205.26	68.353	492.77	154.59	141.39	350.98	80.584	156.19	178.73	83.07	128.09	263.78	137.78	149.06	263.69	78.406	132.07	60.483	110.38	146.76	69.554	27.975	70.879	24.909	72.27	249.05	37.044	52.977	218.06	25.361	126.21	312.74	40.502	81.893	-84.132	731.51	-211.22	-138.69	582.17	-149.06	-57.213	649.6	-155.65	-111.97	659.06	-174.34	-176.1	464.36	-118.86	-210.97	314.14	-44.735	-320.5	181.64	-53.414	-279.73	260.4	-105.89	-267.43	248.19	-47.831	-414.94	114.73	-84.106	-358.62	35.728	-89.556	-266.91	20.693	-38.401	-204.46	797.93	297.79	-140.4	1522.3	-63.529	-230.03	1124.5	-5.6151	-406.37	111.91	0.94231	-217.54	944.14	54.004	32.487	937.66	-129.17	-73.26	1017.4	-215.32	-332.92	35.169	-11.204	-485.71	121.02	-53.942
252	1.26	18.348	1574.1	-55.924	33.045	1575.5	37.92	-118.45	1532	77.995	-165.22	1393.9	7.486	-22.702	1322.4	3.9242	41.894	1220	11.797	-218.27	1293.3	106.61	27.113	963.68	162.64	-208.77	940.79	-35.603	-96.126	1352.1	160.14	-131.02	1168.2	249.98	-193.46	1050.9	265.53	-205.21	906.47	284.61	-135.24	798.05	263.13	-141.01	746.46	314.65	-82.894	1359.2	-150.55	-40.42	1185.7	-243.58	-33.024	1059.4	-278.36	38.577	938.38	-279.94	146.81	882.6	-212.73	115.27	848.64	-269.56	187.45	850.33	-249.69	-9.0614	728.9	229.09	44.661	570.7	182.28	70.028	672.09	191.18	17.116	648.6	205.73	73.434	493.22	155.11	145.14	350.69	80.588	158.09	178.29	82.892	131.24	263.63	137.83	151.87	263.32	78.301	132.63	60.364	110.24	147.18	69.182	27.814	71.034	25.199	72.291	249.36	36.016	52.609	218.16	25.184	126.38	313.51	38.522	81.491	-76.89	731.46	-210.39	-130.35	581.63	-148.6	-49.404	649.7	-154.86	-104.2	658.8	-173.64	-166.93	463.71	-118.66	-203.86	313.8	-44.963	-315.72	183.31	-53.753	-273.58	261.43	-106.14	-261.49	248.89	-48.101	-411.4	118.2	-84.461	-357.71	37.049	-89.374	-267.31	20.639	-38.306	-196.91	798.16	298.53	-134.8	1522.9	-62.514	-224.06	1125	-5.0065	-402.78	115.23	0.48199	-211.36	944.77	54.349	39.177	938.32	-127.81	-69.157	1017.9	-214.02	-332.26	35.752	-11.239	-481.69	126.48	-54.074
253	1.265	23.924	1574.9	-55.018	38.705	1576.2	38.814	-112.73	1532.6	78.997	-159.43	1394.5	8.3971	-16.864	1323.2	4.8053	47.806	1220.9	12.772	-212.4	1293.8	107.45	33.575	964.68	163.07	-202.45	941.19	-35.338	-90.332	1352.7	161	-124.84	1168.8	250.78	-186.94	1051.2	266.31	-198.09	906.73	285.35	-127.49	798.64	263.89	-133.15	747.03	315.39	-77.114	1359.9	-149.69	-35.578	1186	-242.7	-28.873	1059.6	-277.25	41.86	938.06	-278.85	149.8	881.54	-211.78	117.91	847.84	-268.58	190.14	848.9	-248.76	-3.4028	729.81	229.76	49.305	571.32	182.88	75.456	672.43	192.38	22.225	649.34	206.23	78.363	493.69	155.64	148.74	350.42	80.725	159.86	177.89	82.799	134.16	263.49	137.95	154.53	262.99	78.307	133.09	60.277	110.13	147.51	68.885	27.694	71.165	25.446	72.322	249.6	35.195	52.287	218.23	25.093	126.54	314.19	36.805	81.154	-69.589	731.43	-209.54	-121.81	581.06	-148.17	-41.459	649.84	-154.06	-96.295	658.53	-172.94	-157.46	463.02	-118.5	-196.43	313.47	-45.281	-310.63	185.06	-54.134	-267.16	262.51	-106.44	-255.24	249.62	-48.436	-407.57	121.79	-84.809	-356.73	38.471	-89.156	-267.76	20.579	-38.211	-189.3	798.45	299.25	-129.2	1523.6	-61.501	-218.11	1125.6	-4.3958	-398.84	118.65	0.011588	-205.22	945.44	54.679	45.824	939.06	-126.46	-65.111	1018.4	-212.72	-331.51	36.411	-11.267	-477.26	132.12	-54.134
